<?xml version="1.0" encoding="UTF-8"?>
<svg version="1.1" xmlns="http://www.w3.org/2000/svg" width="388" height="400">
<path d="M0 0 C4.28647982 2.6999256 7.14970305 4.96134586 9.34375 9.640625 C9.63671875 12.75390625 9.63671875 12.75390625 9.53125 15.953125 C9.49064453 17.55607422 9.49064453 17.55607422 9.44921875 19.19140625 C9.41441406 19.99964844 9.37960938 20.80789062 9.34375 21.640625 C7.36375 22.135625 7.36375 22.135625 5.34375 22.640625 C5.67375 23.300625 6.00375 23.960625 6.34375 24.640625 C7.59423521 34.51819504 8.96859302 46.56878648 3.28125 55.328125 C0.52141811 58.62211791 0.52141811 58.62211791 -2.65625 58.953125 C-7.47863575 58.92304775 -11.43322854 56.78565178 -15.65625 54.640625 C-15.65625 56.950625 -15.65625 59.260625 -15.65625 61.640625 C-14.893125 61.640625 -14.13 61.640625 -13.34375 61.640625 C-12.456875 61.970625 -11.57 62.300625 -10.65625 62.640625 C-9.93478978 64.42709792 -9.2385468 66.22739615 -8.6640625 68.06640625 C-6.94597424 72.45485651 -4.25035499 76.25971963 -1.69140625 80.19921875 C2.2684901 86.89531988 4.99785218 94.17410518 7.9465332 101.35791016 C14.89127303 121.18956228 14.89127303 121.18956228 28.21875 136.515625 C41.90640612 141.32086598 57.15995099 135.5350584 70.34375 131.640625 C71.24971924 131.37354736 72.15568848 131.10646973 73.08911133 130.83129883 C82.50528223 128.03076591 89.78535487 125.60848777 97.046875 118.74609375 C99.4608486 116.53328462 101.94827867 114.56994063 104.59375 112.640625 C105.38265625 112.063125 106.1715625 111.485625 106.984375 110.890625 C109.66380825 109.47105772 111.35531263 109.3862899 114.34375 109.640625 C113.98500561 114.54346501 112.49759827 117.21754546 109.5 120.9296875 C108.22368554 122.81828794 107.77112157 124.41635023 107.34375 126.640625 C109.65375 127.300625 111.96375 127.960625 114.34375 128.640625 C114.28125 130.453125 114.28125 130.453125 113.34375 132.640625 C107.8331912 135.84443826 101.77610899 136.62681668 95.55078125 137.69921875 C92.02880043 138.7330767 90.74392306 139.9535347 88.34375 142.640625 C87.68375 142.640625 87.02375 142.640625 86.34375 142.640625 C86.27671875 143.20265625 86.2096875 143.7646875 86.140625 144.34375 C82.99530791 153.40966397 69.05428837 160.33008533 61.34375 164.640625 C60.52390625 165.10082031 59.7040625 165.56101563 58.859375 166.03515625 C49.17389343 171.15416077 37.16863522 176.84884717 26.09375 176.703125 C25.20171875 176.69410156 24.3096875 176.68507812 23.390625 176.67578125 C22.37742188 176.65837891 22.37742188 176.65837891 21.34375 176.640625 C21.01375 178.620625 20.68375 180.600625 20.34375 182.640625 C21.19630371 182.7430249 22.04885742 182.8454248 22.92724609 182.95092773 C26.68131778 183.70877056 29.56993804 184.99255969 33.0078125 186.67578125 C34.3390852 187.31622317 35.67150073 187.95429345 37.00488281 188.59033203 C38.06020203 189.09394257 38.06020203 189.09394257 39.13684082 189.60772705 C42.97169194 191.40254937 46.85625572 193.08107112 50.7421875 194.76171875 C51.96122772 195.29026962 51.96122772 195.29026962 53.20489502 195.82949829 C56.5429179 197.27533677 59.88258148 198.71735611 63.22265625 200.15844727 C68.13839024 202.28119429 73.04506081 204.42290018 77.94226074 206.58807373 C80.35930838 207.6474441 82.78703658 208.67929973 85.21582031 209.71142578 C86.75120864 210.38577612 88.2860638 211.06134207 89.8203125 211.73828125 C90.52191498 212.02811386 91.22351746 212.31794647 91.94638062 212.61656189 C97.13763856 214.95636444 98.97349363 217.46510483 101.34375 222.640625 C102.00390625 225.4296875 102.00390625 225.4296875 102.40625 228.265625 C104.16661796 236.60120518 108.26215398 243.52801859 112.30078125 250.9609375 C115.40376105 256.68233577 118.24458091 262.50982937 121.03125 268.390625 C121.71924683 269.83973267 121.71924683 269.83973267 122.42114258 271.31811523 C124.81085148 276.36648788 127.18043107 281.42425519 129.54931641 286.48242188 C132.51841327 292.81925118 135.53607035 299.12653536 138.65625 305.390625 C139.14484497 306.37470337 139.14484497 306.37470337 139.64331055 307.37866211 C141.03010806 310.14324025 142.45936864 312.82958187 144.07421875 315.46875 C145.34375 317.640625 145.34375 317.640625 145.34375 319.640625 C144.02375 320.300625 142.70375 320.960625 141.34375 321.640625 C144.64343451 331.28712964 144.64343451 331.28712964 151.94921875 337.953125 C155.33858763 339.51611321 158.82916285 340.76610397 162.36621094 341.95117188 C165.20941012 342.94243045 167.91634708 344.20836493 170.65625 345.453125 C175.44523118 347.46436607 180.01428751 348.47393526 185.1640625 349.0859375 C187.34375 349.640625 187.34375 349.640625 189.34375 352.640625 C188.96875 356.328125 188.96875 356.328125 188.34375 359.640625 C180.27722826 359.66375237 172.21072028 359.68154209 164.14417362 359.69243717 C160.39891963 359.69766514 156.65368824 359.70476122 152.90844727 359.71606445 C149.29693313 359.72689641 145.68544079 359.73290249 142.07391167 359.73550224 C140.69314671 359.73735594 139.312383 359.74097549 137.93162727 359.74635506 C136.00399048 359.75356947 134.07633193 359.75403309 132.14868164 359.75415039 C131.04947891 359.756371 129.95027618 359.75859161 128.81776428 359.76087952 C126.34375 359.640625 126.34375 359.640625 125.34375 358.640625 C125.19102583 356.56122664 125.12179678 354.47543569 125.09375 352.390625 C125.06796875 351.25109375 125.0421875 350.1115625 125.015625 348.9375 C125.37238131 345.35294854 126.35851912 343.58712557 128.34375 340.640625 C128.34375 337.88011276 127.1823857 337.14950475 125.34375 335.140625 C122.34375 331.86284722 122.34375 331.86284722 122.34375 329.640625 C119.29992666 330.73890713 116.25911497 331.84530873 113.21875 332.953125 C112.3628125 333.26185547 111.506875 333.57058594 110.625 333.88867188 C106.03495483 335.56580376 101.70322507 337.417493 97.34375 339.640625 C94.65625 340.140625 94.65625 340.140625 92.34375 339.640625 C90.15026057 336.4560864 88.72239857 333.26930262 87.47265625 329.625 C85.24557854 323.30912197 82.78045574 317.10304346 80.28125 310.890625 C79.6305957 309.26447266 79.6305957 309.26447266 78.96679688 307.60546875 C76.82096162 302.25557811 74.64625682 296.92506688 72.34375 291.640625 C70.05011718 294.57784434 68.13587803 297.59733563 66.28125 300.828125 C65.67539063 301.87613281 65.06953125 302.92414063 64.4453125 304.00390625 C64.11305664 304.57963379 63.78080078 305.15536133 63.43847656 305.74853516 C61.35749506 309.34523601 59.2576944 312.9308538 57.15625 316.515625 C56.74044678 317.22871826 56.32464355 317.94181152 55.89624023 318.67651367 C53.50242345 322.75878774 51.00980187 326.73041559 48.34375 330.640625 C41.30714474 326.74677321 34.43879876 322.92348956 28.08203125 317.96875 C25.25559751 315.80922759 22.58548766 314.13681161 19.34375 312.640625 C15.82066787 313.44590092 13.76530254 316.04610442 11.34375 318.640625 C11.67246094 319.07890625 12.00117188 319.5171875 12.33984375 319.96875 C17.0078125 326.19270833 21.67578125 332.41666667 26.34375 338.640625 C26.92769531 339.37796875 27.51164063 340.1153125 28.11328125 340.875 C29.34375 342.640625 29.34375 342.640625 29.34375 344.640625 C30.4575 344.9809375 30.4575 344.9809375 31.59375 345.328125 C34.85514591 346.88470032 36.27269975 348.72581354 38.34375 351.640625 C36.89446581 356.23002494 36.89446581 356.23002494 34.578125 357.95703125 C32.34375 358.640625 32.34375 358.640625 29.96875 357.76953125 C28.669375 356.99416016 28.669375 356.99416016 27.34375 356.203125 C26.38855469 355.64496094 25.43335938 355.08679688 24.44921875 354.51171875 C23.42441406 353.89425781 22.39960938 353.27679688 21.34375 352.640625 C19.11528183 351.34775362 16.88613313 350.05605441 14.65625 348.765625 C12.88449139 347.72553291 11.11331179 346.68445028 9.34375 345.640625 C9.3746875 347.3421875 9.3746875 347.3421875 9.40625 349.078125 C9.34375 352.640625 9.34375 352.640625 8.34375 353.640625 C6.7241866 353.73665522 5.10041917 353.76250355 3.47801208 353.76087952 C2.42486816 353.76225418 1.37172424 353.76362885 0.28666687 353.76504517 C-0.87858017 353.76144989 -2.04382721 353.75785461 -3.24438477 353.75415039 C-5.07339828 353.75436943 -5.07339828 353.75436943 -6.93936157 353.7545929 C-10.29252511 353.75401393 -13.64562774 353.74898468 -16.99878049 353.74201894 C-20.49950562 353.73578483 -24.00023148 353.73518156 -27.5009613 353.73399353 C-34.13434656 353.73088038 -40.76771541 353.72266722 -47.40109342 353.71264404 C-54.95115207 353.70148239 -62.50121149 353.69597232 -70.05127633 353.69094861 C-85.58627706 353.68048459 -101.12126142 353.66288547 -116.65625 353.640625 C-116.50629528 351.88196028 -116.35351264 350.12353654 -116.19953918 348.36521912 C-116.07237377 346.89634829 -116.07237377 346.89634829 -115.94263935 345.39780331 C-115.60583199 342.15523183 -114.97294786 339.08370021 -114.16796875 335.92578125 C-113.87583496 334.7553125 -113.58370117 333.58484375 -113.28271484 332.37890625 C-112.97285645 331.16589844 -112.66299805 329.95289063 -112.34375 328.703125 C-110.23032372 320.2108185 -108.17390445 311.73741678 -106.53125 303.140625 C-105.05335002 295.41581663 -103.29858308 287.78443161 -101.44091797 280.14257812 C-99.95032699 273.97763196 -98.67063251 267.80606163 -97.46875 261.578125 C-96.31819028 255.8253264 -94.88204181 250.13654432 -93.50097656 244.43579102 C-91.91435751 237.84238665 -90.51138119 231.23395451 -89.234375 224.57421875 C-88.77607197 222.24864055 -88.23113391 219.94016063 -87.65625 217.640625 C-78.41625 217.310625 -69.17625 216.980625 -59.65625 216.640625 C-60.97625 213.670625 -62.29625 210.700625 -63.65625 207.640625 C-74.05125 207.145625 -74.05125 207.145625 -84.65625 206.640625 C-83.64962016 190.53454759 -81.64100263 175.27014017 -77.65625 159.640625 C-78.16414063 160.61902344 -78.67203125 161.59742188 -79.1953125 162.60546875 C-82.51703329 168.95350197 -85.81924915 175.20919925 -89.91796875 181.09765625 C-91.33987001 183.17778595 -92.70419342 185.27359672 -94.05078125 187.40234375 C-98.83142951 194.95023003 -103.74704835 202.37142244 -109.03125 209.578125 C-109.51867676 210.25818604 -110.00610352 210.93824707 -110.50830078 211.63891602 C-113.25706507 215.32108927 -115.13569278 217.24292621 -119.65625 218.640625 C-122.8427359 225.0135968 -120.22309059 234.06549039 -118.65625 240.640625 C-119.64625 240.970625 -120.63625 241.300625 -121.65625 241.640625 C-124.73239963 239.53983989 -126.58039397 237.75440905 -128.65625 234.640625 C-133.8518027 233.62149735 -138.7929457 234.53889548 -143.71875 236.265625 C-148.82809006 237.97142042 -152.66342959 237.59301098 -157.65625 235.640625 C-160.21875 234.015625 -160.21875 234.015625 -161.65625 232.640625 C-161.53125 230.390625 -161.53125 230.390625 -160.65625 227.640625 C-157.75509367 225.29206988 -154.96831772 223.77169344 -151.53125 222.328125 C-150.23512912 221.77596588 -148.9442404 221.21149254 -147.65625 220.640625 C-146.66367188 220.20492187 -145.67109375 219.76921875 -144.6484375 219.3203125 C-138.45519162 216.31214483 -138.45519162 216.31214483 -134.32421875 211.04296875 C-133.53583278 207.91050472 -133.0559342 204.84563985 -132.65625 201.640625 C-127.49971847 171.07509755 -115.77357488 142.52843575 -98.53125 116.828125 C-97.90669922 115.88549805 -97.90669922 115.88549805 -97.26953125 114.92382812 C-94.88394881 111.35293279 -92.36822654 107.9753086 -89.65625 104.640625 C-88.66625 103.155625 -88.66625 103.155625 -87.65625 101.640625 C-86.99625 101.640625 -86.33625 101.640625 -85.65625 101.640625 C-85.40875 101.08375 -85.16125 100.526875 -84.90625 99.953125 C-75.4729747 82.50156569 -53.67562336 69.32020724 -37.65625 58.640625 C-36.66625 58.640625 -35.67625 58.640625 -34.65625 58.640625 C-32.95116527 49.11916178 -34.45786851 43.20701955 -38.65625 34.640625 C-39.78874815 32.194429 -40.88122915 29.7320661 -41.96875 27.265625 C-42.48050781 26.14414062 -42.99226563 25.02265625 -43.51953125 23.8671875 C-44.70550015 20.50082905 -45.00745884 18.17744645 -44.65625 14.640625 C-42.90625 11.328125 -42.90625 11.328125 -40.65625 8.640625 C-39.955 8.475625 -39.25375 8.310625 -38.53125 8.140625 C-37.9125 7.975625 -37.29375 7.810625 -36.65625 7.640625 C-36.1921875 6.2484375 -36.1921875 6.2484375 -35.71875 4.828125 C-34.19328244 0.25172232 -31.53525677 -1.28565685 -27.46875 -3.609375 C-18.44032597 -6.01695474 -8.2314297 -4.2125552 0 0 Z M0.34375 239.640625 C-0.32604668 257.05533866 1.66258923 274.33122684 3.34375 291.640625 C6.39024009 289.24943053 8.97559567 287.11875995 11.21875 283.953125 C13.28585776 281.07100217 15.40564275 278.2435461 17.58984375 275.44921875 C18.20182617 274.66506592 18.81380859 273.88091309 19.44433594 273.07299805 C20.07114258 272.27031494 20.69794922 271.46763184 21.34375 270.640625 C22.54601457 269.09409324 23.74784255 267.54722197 24.94921875 266 C26.14322917 264.46354167 27.33723958 262.92708333 28.53125 261.390625 C29.13388672 260.61460937 29.73652344 259.83859375 30.35742188 259.0390625 C30.94458984 258.28367187 31.53175781 257.52828125 32.13671875 256.75 C32.69020996 256.03650391 33.24370117 255.32300781 33.81396484 254.58789062 C35.10579442 252.94351898 36.43379325 251.32765825 37.76953125 249.71875 C39.54502628 247.80943054 39.54502628 247.80943054 39.34375 245.640625 C31.40092299 243.56281682 23.46469958 242.11567195 15.34375 240.953125 C14.4360083 240.82188232 13.5282666 240.69063965 12.59301758 240.55541992 C8.46376427 239.98264881 4.52008619 239.57560033 0.34375 239.640625 Z " fill="#F1F1F1" transform="translate(179.65625,20.359375)"/>
<path d="M0 0 C4.28647982 2.6999256 7.14970305 4.96134586 9.34375 9.640625 C9.63671875 12.75390625 9.63671875 12.75390625 9.53125 15.953125 C9.49064453 17.55607422 9.49064453 17.55607422 9.44921875 19.19140625 C9.41441406 19.99964844 9.37960938 20.80789062 9.34375 21.640625 C7.36375 22.135625 7.36375 22.135625 5.34375 22.640625 C5.67375 23.300625 6.00375 23.960625 6.34375 24.640625 C7.59423521 34.51819504 8.96859302 46.56878648 3.28125 55.328125 C0.52141811 58.62211791 0.52141811 58.62211791 -2.65625 58.953125 C-7.47863575 58.92304775 -11.43322854 56.78565178 -15.65625 54.640625 C-15.65625 56.950625 -15.65625 59.260625 -15.65625 61.640625 C-14.893125 61.640625 -14.13 61.640625 -13.34375 61.640625 C-12.456875 61.970625 -11.57 62.300625 -10.65625 62.640625 C-9.93478978 64.42709792 -9.2385468 66.22739615 -8.6640625 68.06640625 C-6.94597424 72.45485651 -4.25035499 76.25971963 -1.69140625 80.19921875 C2.2684901 86.89531988 4.99785218 94.17410518 7.9465332 101.35791016 C14.89127303 121.18956228 14.89127303 121.18956228 28.21875 136.515625 C41.90640612 141.32086598 57.15995099 135.5350584 70.34375 131.640625 C71.24971924 131.37354736 72.15568848 131.10646973 73.08911133 130.83129883 C82.50528223 128.03076591 89.78535487 125.60848777 97.046875 118.74609375 C99.4608486 116.53328462 101.94827867 114.56994063 104.59375 112.640625 C105.38265625 112.063125 106.1715625 111.485625 106.984375 110.890625 C109.66380825 109.47105772 111.35531263 109.3862899 114.34375 109.640625 C113.98500561 114.54346501 112.49759827 117.21754546 109.5 120.9296875 C108.22368554 122.81828794 107.77112157 124.41635023 107.34375 126.640625 C109.65375 127.300625 111.96375 127.960625 114.34375 128.640625 C114.28125 130.453125 114.28125 130.453125 113.34375 132.640625 C107.8331912 135.84443826 101.77610899 136.62681668 95.55078125 137.69921875 C92.02880043 138.7330767 90.74392306 139.9535347 88.34375 142.640625 C87.68375 142.640625 87.02375 142.640625 86.34375 142.640625 C86.27671875 143.20265625 86.2096875 143.7646875 86.140625 144.34375 C82.99530791 153.40966397 69.05428837 160.33008533 61.34375 164.640625 C60.52390625 165.10082031 59.7040625 165.56101563 58.859375 166.03515625 C49.17389343 171.15416077 37.16863522 176.84884717 26.09375 176.703125 C25.20171875 176.69410156 24.3096875 176.68507812 23.390625 176.67578125 C22.37742188 176.65837891 22.37742188 176.65837891 21.34375 176.640625 C21.199375 177.445 21.055 178.249375 20.90625 179.078125 C20.34375 181.640625 20.34375 181.640625 19.34375 182.640625 C17.56303754 182.72788723 15.7789186 182.74761541 13.99609375 182.73828125 C12.91650391 182.73505859 11.83691406 182.73183594 10.72460938 182.72851562 C9.58830078 182.72013672 8.45199219 182.71175781 7.28125 182.703125 C6.14107422 182.69861328 5.00089844 182.69410156 3.82617188 182.68945312 C0.99864649 182.67762247 -1.8287764 182.6611391 -4.65625 182.640625 C-4.65625 184.950625 -4.65625 187.260625 -4.65625 189.640625 C-5.31625 189.640625 -5.97625 189.640625 -6.65625 189.640625 C-6.594375 190.795625 -6.5325 191.950625 -6.46875 193.140625 C-6.29450828 196.39313708 -7.01786498 198.7996913 -8.17456055 201.79882812 C-8.45035446 202.51848755 -8.72614838 203.23814697 -9.01029968 203.97961426 C-9.22346329 204.5277478 -9.43662689 205.07588135 -9.65625 205.640625 C-16.96210342 205.78593492 -24.26801605 205.92794849 -31.57397461 206.06787109 C-34.04957465 206.11564836 -36.52516125 206.16412861 -39.00073242 206.21337891 C-54.22146771 206.51563464 -69.43240758 206.71499345 -84.65625 206.640625 C-83.66563611 190.54421833 -81.63872298 175.26119862 -77.65625 159.640625 C-78.16414063 160.61902344 -78.67203125 161.59742188 -79.1953125 162.60546875 C-82.51703329 168.95350197 -85.81924915 175.20919925 -89.91796875 181.09765625 C-91.33987001 183.17778595 -92.70419342 185.27359672 -94.05078125 187.40234375 C-98.83142951 194.95023003 -103.74704835 202.37142244 -109.03125 209.578125 C-109.51867676 210.25818604 -110.00610352 210.93824707 -110.50830078 211.63891602 C-113.25706507 215.32108927 -115.13569278 217.24292621 -119.65625 218.640625 C-122.8427359 225.0135968 -120.22309059 234.06549039 -118.65625 240.640625 C-119.64625 240.970625 -120.63625 241.300625 -121.65625 241.640625 C-124.73239963 239.53983989 -126.58039397 237.75440905 -128.65625 234.640625 C-133.8518027 233.62149735 -138.7929457 234.53889548 -143.71875 236.265625 C-148.82809006 237.97142042 -152.66342959 237.59301098 -157.65625 235.640625 C-160.21875 234.015625 -160.21875 234.015625 -161.65625 232.640625 C-161.53125 230.390625 -161.53125 230.390625 -160.65625 227.640625 C-157.75509367 225.29206988 -154.96831772 223.77169344 -151.53125 222.328125 C-150.23512912 221.77596588 -148.9442404 221.21149254 -147.65625 220.640625 C-146.66367188 220.20492187 -145.67109375 219.76921875 -144.6484375 219.3203125 C-138.45519162 216.31214483 -138.45519162 216.31214483 -134.32421875 211.04296875 C-133.53583278 207.91050472 -133.0559342 204.84563985 -132.65625 201.640625 C-127.49971847 171.07509755 -115.77357488 142.52843575 -98.53125 116.828125 C-97.90669922 115.88549805 -97.90669922 115.88549805 -97.26953125 114.92382812 C-94.88394881 111.35293279 -92.36822654 107.9753086 -89.65625 104.640625 C-88.66625 103.155625 -88.66625 103.155625 -87.65625 101.640625 C-86.99625 101.640625 -86.33625 101.640625 -85.65625 101.640625 C-85.40875 101.08375 -85.16125 100.526875 -84.90625 99.953125 C-75.4729747 82.50156569 -53.67562336 69.32020724 -37.65625 58.640625 C-36.66625 58.640625 -35.67625 58.640625 -34.65625 58.640625 C-32.95116527 49.11916178 -34.45786851 43.20701955 -38.65625 34.640625 C-39.78874815 32.194429 -40.88122915 29.7320661 -41.96875 27.265625 C-42.48050781 26.14414062 -42.99226563 25.02265625 -43.51953125 23.8671875 C-44.70550015 20.50082905 -45.00745884 18.17744645 -44.65625 14.640625 C-42.90625 11.328125 -42.90625 11.328125 -40.65625 8.640625 C-39.955 8.475625 -39.25375 8.310625 -38.53125 8.140625 C-37.9125 7.975625 -37.29375 7.810625 -36.65625 7.640625 C-36.1921875 6.2484375 -36.1921875 6.2484375 -35.71875 4.828125 C-34.19328244 0.25172232 -31.53525677 -1.28565685 -27.46875 -3.609375 C-18.44032597 -6.01695474 -8.2314297 -4.2125552 0 0 Z " fill="#FEA434" transform="translate(179.65625,20.359375)"/>
<path d="M0 0 C4.10705042 -0.19968829 8.21217652 -0.34379701 12.32299805 -0.43945312 C13.71705399 -0.47937067 15.11078179 -0.53373171 16.50366211 -0.60351562 C28.09775407 -1.16928402 28.09775407 -1.16928402 32.82275391 1.73510742 C35.19140625 3.88671875 35.19140625 3.88671875 37.13891602 6.04174805 C40.17897828 9.24053323 43.90251422 10.56461532 48 12 C48.63953613 12.23702637 49.27907227 12.47405273 49.93798828 12.71826172 C55.54508107 14.71684162 60.9812509 15.7575526 66.875 16.5 C74.12532839 17.42194129 80.98502688 18.93510198 88 21 C88.0501123 21.78310547 88.10022461 22.56621094 88.15185547 23.37304688 C88.34665266 26.39969165 88.54375327 29.42617792 88.74188232 32.4526062 C88.83051202 33.81576023 88.91812054 35.17898104 89.00469971 36.54226685 C89.46178646 43.73929972 89.95823625 50.91709516 90.71875 58.08984375 C90.82848145 59.16621094 90.93821289 60.24257813 91.05126953 61.3515625 C91.2619864 63.36020591 91.49119051 65.36702405 91.74169922 67.37109375 C92.38406521 73.64112021 91.69861421 76.84886489 88 82 C88.69480469 82.24878906 89.38960938 82.49757813 90.10546875 82.75390625 C93.42754767 84.18405898 96.28843151 85.95468586 99.3125 87.9375 C100.38113281 88.62714844 101.44976562 89.31679688 102.55078125 90.02734375 C103.35902344 90.67832031 104.16726562 91.32929688 105 92 C105 95 105 95 103.6875 96.38671875 C102.125 97.59114583 100.5625 98.79557292 99 100 C102.53423011 105.78233507 106.04917575 111.31863692 110.578125 116.37109375 C117 123.72802198 117 123.72802198 117 127 C117.7425 127.226875 118.485 127.45375 119.25 127.6875 C122.51139591 129.24407532 123.92894975 131.08518854 126 134 C124.55071581 138.58939994 124.55071581 138.58939994 122.234375 140.31640625 C120 141 120 141 117.625 140.12890625 C116.325625 139.35353516 116.325625 139.35353516 115 138.5625 C114.04480469 138.00433594 113.08960938 137.44617188 112.10546875 136.87109375 C110.56826172 135.94490234 110.56826172 135.94490234 109 135 C106.77153183 133.70712862 104.54238313 132.41542941 102.3125 131.125 C100.54074139 130.08490791 98.76956179 129.04382528 97 128 C97.020625 129.134375 97.04125 130.26875 97.0625 131.4375 C97 135 97 135 96 136 C94.3804366 136.09603022 92.75666917 136.12187855 91.13426208 136.12025452 C90.08111816 136.12162918 89.02797424 136.12300385 87.94291687 136.12442017 C86.19504631 136.11902725 86.19504631 136.11902725 84.41186523 136.11352539 C82.58285172 136.11374443 82.58285172 136.11374443 80.71688843 136.1139679 C77.36372489 136.11338893 74.01062226 136.10835968 70.65746951 136.10139394 C67.15674438 136.09515983 63.65601852 136.09455656 60.1552887 136.09336853 C53.52190344 136.09025538 46.88853459 136.08204222 40.25515658 136.07201904 C32.70509793 136.06085739 25.15503851 136.05534732 17.60497367 136.05032361 C2.06997294 136.03985959 -13.46501142 136.02226047 -29 136 C-28.85004528 134.24133528 -28.69726264 132.48291154 -28.54328918 130.72459412 C-28.45851224 129.7453469 -28.37373529 128.76609968 -28.28638935 127.75717831 C-27.94958199 124.51460683 -27.31669786 121.44307521 -26.51171875 118.28515625 C-26.21958496 117.1146875 -25.92745117 115.94421875 -25.62646484 114.73828125 C-25.31660645 113.52527344 -25.00674805 112.31226563 -24.6875 111.0625 C-22.57407372 102.5701935 -20.51765445 94.09679178 -18.875 85.5 C-17.39710002 77.77519163 -15.64233308 70.14380661 -13.78466797 62.50195312 C-12.29407699 56.33700696 -11.01438251 50.16543663 -9.8125 43.9375 C-8.66194028 38.1847014 -7.22579181 32.49591932 -5.84472656 26.79516602 C-4.25810751 20.20176165 -2.85513119 13.59332951 -1.578125 6.93359375 C-1.11734641 4.59545376 -0.58914423 2.30727484 0 0 Z " fill="#C5CED5" transform="translate(92,238)"/>
<path d="M0 0 C4.28647982 2.6999256 7.14970305 4.96134586 9.34375 9.640625 C9.63671875 12.75390625 9.63671875 12.75390625 9.53125 15.953125 C9.49064453 17.55607422 9.49064453 17.55607422 9.44921875 19.19140625 C9.41441406 19.99964844 9.37960938 20.80789062 9.34375 21.640625 C8.02375 21.970625 6.70375 22.300625 5.34375 22.640625 C5.83875 23.630625 5.83875 23.630625 6.34375 24.640625 C7.59423521 34.51819504 8.96859302 46.56878648 3.28125 55.328125 C0.52141811 58.62211791 0.52141811 58.62211791 -2.65625 58.953125 C-7.47863575 58.92304775 -11.43322854 56.78565178 -15.65625 54.640625 C-15.65625 56.950625 -15.65625 59.260625 -15.65625 61.640625 C-14.893125 61.640625 -14.13 61.640625 -13.34375 61.640625 C-12.456875 61.970625 -11.57 62.300625 -10.65625 62.640625 C-9.93478978 64.42709792 -9.2385468 66.22739615 -8.6640625 68.06640625 C-6.94597424 72.45485651 -4.25035499 76.25971963 -1.69140625 80.19921875 C2.2684901 86.89531988 4.99785218 94.17410518 7.9465332 101.35791016 C14.89127303 121.18956228 14.89127303 121.18956228 28.21875 136.515625 C41.90640612 141.32086598 57.15995099 135.5350584 70.34375 131.640625 C71.24971924 131.37354736 72.15568848 131.10646973 73.08911133 130.83129883 C82.50528223 128.03076591 89.78535487 125.60848777 97.046875 118.74609375 C99.4608486 116.53328462 101.94827867 114.56994063 104.59375 112.640625 C105.38265625 112.063125 106.1715625 111.485625 106.984375 110.890625 C109.66380825 109.47105772 111.35531263 109.3862899 114.34375 109.640625 C113.98500561 114.54346501 112.49759827 117.21754546 109.5 120.9296875 C108.22368554 122.81828794 107.77112157 124.41635023 107.34375 126.640625 C109.65375 127.300625 111.96375 127.960625 114.34375 128.640625 C114.28125 130.453125 114.28125 130.453125 113.34375 132.640625 C107.8331912 135.84443826 101.77610899 136.62681668 95.55078125 137.69921875 C92.02880043 138.7330767 90.74392306 139.9535347 88.34375 142.640625 C87.68375 142.640625 87.02375 142.640625 86.34375 142.640625 C86.27671875 143.20265625 86.2096875 143.7646875 86.140625 144.34375 C82.99530791 153.40966397 69.05428837 160.33008533 61.34375 164.640625 C60.52390625 165.10082031 59.7040625 165.56101563 58.859375 166.03515625 C49.17389343 171.15416077 37.16863522 176.84884717 26.09375 176.703125 C25.20171875 176.69410156 24.3096875 176.68507812 23.390625 176.67578125 C22.37742188 176.65837891 22.37742188 176.65837891 21.34375 176.640625 C21.199375 177.445 21.055 178.249375 20.90625 179.078125 C20.34375 181.640625 20.34375 181.640625 19.34375 182.640625 C17.56303754 182.72788723 15.7789186 182.74761541 13.99609375 182.73828125 C12.91650391 182.73505859 11.83691406 182.73183594 10.72460938 182.72851562 C9.58830078 182.72013672 8.45199219 182.71175781 7.28125 182.703125 C6.14107422 182.69861328 5.00089844 182.69410156 3.82617188 182.68945312 C0.99864649 182.67762247 -1.8287764 182.6611391 -4.65625 182.640625 C-4.65625 184.950625 -4.65625 187.260625 -4.65625 189.640625 C-4.98625 189.640625 -5.31625 189.640625 -5.65625 189.640625 C-5.685979 188.38125122 -5.685979 188.38125122 -5.71630859 187.09643555 C-5.79602097 183.87733255 -5.88272086 180.65850202 -5.97363281 177.43969727 C-6.029199 175.40329058 -6.07724376 173.36668293 -6.125 171.33007812 C-6.57072987 154.67289877 -8.58955333 138.47685105 -11.95043945 122.16113281 C-12.46818726 119.64336158 -12.97040447 117.12285262 -13.47070312 114.6015625 C-15.77141155 103.15844847 -18.57607479 91.8966983 -21.65625 80.640625 C-22.06140026 79.14530319 -22.4661152 77.64986336 -22.87036133 76.15429688 C-23.53065936 73.71541146 -24.19340457 71.27718635 -24.859375 68.83984375 C-25.6206492 65.78355174 -26.18530346 62.7535816 -26.65625 59.640625 C-29.29625 59.640625 -31.93625 59.640625 -34.65625 59.640625 C-34.52605469 58.84140625 -34.39585937 58.0421875 -34.26171875 57.21875 C-33.12803384 48.19165146 -34.67271185 42.67811739 -38.65625 34.640625 C-39.79107499 32.19541092 -40.88228271 29.73261395 -41.96875 27.265625 C-42.73638672 25.58339844 -42.73638672 25.58339844 -43.51953125 23.8671875 C-44.70550015 20.50082905 -45.00745884 18.17744645 -44.65625 14.640625 C-42.90625 11.328125 -42.90625 11.328125 -40.65625 8.640625 C-39.955 8.475625 -39.25375 8.310625 -38.53125 8.140625 C-37.9125 7.975625 -37.29375 7.810625 -36.65625 7.640625 C-36.346875 6.7125 -36.0375 5.784375 -35.71875 4.828125 C-34.19328244 0.25172232 -31.53525677 -1.28565685 -27.46875 -3.609375 C-18.44032597 -6.01695474 -8.2314297 -4.2125552 0 0 Z " fill="#C8CFD4" transform="translate(179.65625,20.359375)"/>
<path d="M0 0 C8.91 0 17.82 0 27 0 C29.71026493 19.63831307 32.22892912 39.264674 34.125 59 C35.44380673 72.72055551 36.99999858 86.35974639 39 100 C40.73336959 112.02802936 41.38936581 123.78731628 42 136 C18.57 136 -4.86 136 -29 136 C-27.87617066 123.63787721 -27.87617066 123.63787721 -26.51171875 118.28515625 C-26.21958496 117.1146875 -25.92745117 115.94421875 -25.62646484 114.73828125 C-25.31660645 113.52527344 -25.00674805 112.31226563 -24.6875 111.0625 C-22.57407372 102.5701935 -20.51765445 94.09679178 -18.875 85.5 C-17.39710002 77.77519163 -15.64233308 70.14380661 -13.78466797 62.50195312 C-12.29407699 56.33700696 -11.01438251 50.16543663 -9.8125 43.9375 C-8.66194028 38.1847014 -7.22579181 32.49591932 -5.84472656 26.79516602 C-4.25810751 20.20176165 -2.85513119 13.59332951 -1.578125 6.93359375 C-1.11982197 4.60801555 -0.57488391 2.29953563 0 0 Z " fill="#B2BBC1" transform="translate(92,238)"/>
<path d="M0 0 C2.35529333 2.16354395 3.83390627 4.24923477 5.3125 7.078125 C5.95771606 8.30740723 5.95771606 8.30740723 6.6159668 9.56152344 C7.07269775 10.4487207 7.52942871 11.33591797 8 12.25 C8.48057861 13.17586914 8.96115723 14.10173828 9.45629883 15.05566406 C16.03479993 27.82525494 22.11418268 40.83515882 28.20556641 53.84179688 C31.17466327 60.17862618 34.19232035 66.48591036 37.3125 72.75 C37.63822998 73.40605225 37.96395996 74.06210449 38.29956055 74.73803711 C39.68635806 77.50261525 41.11561864 80.18895687 42.73046875 82.828125 C44 85 44 85 44 87 C42.02 87.99 42.02 87.99 40 89 C43.29968451 98.64650464 43.29968451 98.64650464 50.60546875 105.3125 C53.99483763 106.87548821 57.48541285 108.12547897 61.02246094 109.31054688 C63.86566012 110.30180545 66.57259708 111.56773993 69.3125 112.8125 C74.10148118 114.82374107 78.67053751 115.83331026 83.8203125 116.4453125 C86 117 86 117 88 120 C87.625 123.6875 87.625 123.6875 87 127 C78.93347826 127.02312737 70.86697028 127.04091709 62.80042362 127.05181217 C59.05516963 127.05704014 55.30993824 127.06413622 51.56469727 127.07543945 C47.95318313 127.08627141 44.34169079 127.09227749 40.73016167 127.09487724 C39.34939671 127.09673094 37.968633 127.10035049 36.58787727 127.10573006 C34.66024048 127.11294447 32.73258193 127.11340809 30.80493164 127.11352539 C29.70572891 127.115746 28.60652618 127.11796661 27.47401428 127.12025452 C25 127 25 127 24 126 C23.84727583 123.92060164 23.77804678 121.83481069 23.75 119.75 C23.72421875 118.61046875 23.6984375 117.4709375 23.671875 116.296875 C24.02863131 112.71232354 25.01476912 110.94650057 27 108 C27 105.23948776 25.8386357 104.50887975 24 102.5 C21 99.22222222 21 99.22222222 21 97 C17.95617666 98.09828213 14.91536497 99.20468373 11.875 100.3125 C11.0190625 100.62123047 10.163125 100.92996094 9.28125 101.24804688 C4.69120483 102.92517876 0.35947507 104.776868 -4 107 C-6.6875 107.5 -6.6875 107.5 -9 107 C-11.19567257 103.81299372 -12.62181384 100.62436292 -13.87109375 96.9765625 C-16.47062351 89.60195739 -19.43352507 82.38329492 -22.37695312 75.140625 C-24.27237681 70.44389782 -26.15488734 65.74217826 -27.87109375 60.9765625 C-28.11657959 60.29932129 -28.36206543 59.62208008 -28.61499023 58.92431641 C-29.56851581 54.15850245 -26.6051736 50.23129553 -24.3125 46.25 C-23.92747314 45.57259766 -23.54244629 44.89519531 -23.14575195 44.19726562 C-20.60415388 39.74394166 -18.01927864 35.31617163 -15.4296875 30.890625 C-14.81182373 29.83456055 -14.19395996 28.77849609 -13.55737305 27.69042969 C-12.33265759 25.60078592 -11.10506169 23.51282706 -9.87426758 21.42675781 C-3.47050138 11.28648154 -3.47050138 11.28648154 0 0 Z " fill="#C7D1D9" transform="translate(281,253)"/>
<path d="M0 0 C3.00785928 2.82976235 5.28798348 5.70357397 7.5 9.1875 C8.0671875 10.06792969 8.634375 10.94835937 9.21875 11.85546875 C12.98449499 18.50332997 15.70582783 25.6594982 18.6027832 32.71728516 C25.54752303 52.54893728 25.54752303 52.54893728 38.875 67.875 C52.56265612 72.68024098 67.81620099 66.8944334 81 63 C81.90596924 62.73292236 82.81193848 62.46584473 83.74536133 62.19067383 C93.16153223 59.39014091 100.44160487 56.96786277 107.703125 50.10546875 C110.1170986 47.89265962 112.60452867 45.92931563 115.25 44 C116.03890625 43.4225 116.8278125 42.845 117.640625 42.25 C120.32005825 40.83043272 122.01156263 40.7456649 125 41 C124.64125561 45.90284001 123.15384827 48.57692046 120.15625 52.2890625 C118.87993554 54.17766294 118.42737157 55.77572523 118 58 C120.31 58.66 122.62 59.32 125 60 C124.9375 61.8125 124.9375 61.8125 124 64 C118.4894412 67.20381326 112.43235899 67.98619168 106.20703125 69.05859375 C102.68505043 70.0924517 101.40017306 71.3129097 99 74 C98.34 74 97.68 74 97 74 C96.93296875 74.56203125 96.8659375 75.1240625 96.796875 75.703125 C93.65155791 84.76903897 79.71053837 91.68946033 72 96 C71.18015625 96.46019531 70.3603125 96.92039062 69.515625 97.39453125 C59.58390459 102.64367878 47.59099615 108.19751186 36.25 108.0625 C35.26515625 108.05347656 34.2803125 108.04445313 33.265625 108.03515625 C32.51796875 108.02355469 31.7703125 108.01195312 31 108 C30.69707031 107.01902344 30.39414063 106.03804688 30.08203125 105.02734375 C28.73537598 100.6804557 27.37099793 96.33926572 26 92 C25.79181641 91.3385498 25.58363281 90.67709961 25.36914062 89.99560547 C24.77501346 88.11949032 24.16884896 86.24720086 23.5625 84.375 C23.21316406 83.28960937 22.86382812 82.20421875 22.50390625 81.0859375 C21.24322451 77.46387971 19.699462 73.98419749 18.16015625 70.47265625 C14.96506685 63.14245624 12.36711445 55.66069753 9.875 48.0625 C9.45863281 46.82048828 9.04226562 45.57847656 8.61328125 44.29882812 C-0.17921399 17.74218498 -0.17921399 17.74218498 -0.0625 6.1875 C-0.05347656 5.02605469 -0.04445312 3.86460938 -0.03515625 2.66796875 C-0.02355469 1.78753906 -0.01195312 0.90710938 0 0 Z " fill="#E77613" transform="translate(169,89)"/>
<path d="M0 0 C4.28647982 2.6999256 7.14970305 4.96134586 9.34375 9.640625 C9.63671875 12.75390625 9.63671875 12.75390625 9.53125 15.953125 C9.49064453 17.55607422 9.49064453 17.55607422 9.44921875 19.19140625 C9.41441406 19.99964844 9.37960938 20.80789062 9.34375 21.640625 C6.45709309 22.48120907 4.02772663 22.70053879 1.03125 22.578125 C-3.21232692 22.55711719 -6.72367392 22.8749786 -10.65625 24.640625 C-12.18771378 27.64656921 -12.18771378 27.64656921 -12.65625 30.640625 C-15.90533017 30.27961609 -17.31140751 30.00771539 -19.59375 27.578125 C-21.91346343 24.95594954 -21.91346343 24.95594954 -27.65625 25.640625 C-27.98625 32.570625 -28.31625 39.500625 -28.65625 46.640625 C-30.63625 47.135625 -30.63625 47.135625 -32.65625 47.640625 C-36.04609366 40.4897156 -39.42018821 33.32807219 -42.59375 26.078125 C-42.99464844 25.16933594 -43.39554688 24.26054688 -43.80859375 23.32421875 C-44.78066526 20.24673889 -44.92307692 17.8512965 -44.65625 14.640625 C-42.90625 11.328125 -42.90625 11.328125 -40.65625 8.640625 C-39.955 8.475625 -39.25375 8.310625 -38.53125 8.140625 C-37.9125 7.975625 -37.29375 7.810625 -36.65625 7.640625 C-36.346875 6.7125 -36.0375 5.784375 -35.71875 4.828125 C-34.19328244 0.25172232 -31.53525677 -1.28565685 -27.46875 -3.609375 C-18.44032597 -6.01695474 -8.2314297 -4.2125552 0 0 Z " fill="#4A302B" transform="translate(179.65625,20.359375)"/>
<path d="M0 0 C2.52925008 11.41297971 3.26891395 23.25952157 -2 34 C-4.15010778 36.56818429 -4.66381219 36.95293371 -8.125 37.4375 C-12.96469709 36.89108259 -16.69266846 35.18785094 -21 33 C-21 35.31 -21 37.62 -21 40 C-24.2830098 41.6415049 -27.42545033 40.51888624 -31 40 C-31.33 40.66 -31.66 41.32 -32 42 C-32 40.68 -32 39.36 -32 38 C-34.64 38 -37.28 38 -40 38 C-39.88610125 36.20759337 -39.75852313 34.41605165 -39.625 32.625 C-39.55539063 31.62726563 -39.48578125 30.62953125 -39.4140625 29.6015625 C-39 27 -39 27 -37 25 C-36.01 25 -35.02 25 -34 25 C-34.02356567 24.16021606 -34.02356567 24.16021606 -34.04760742 23.3034668 C-34.10999848 20.7649141 -34.14900218 18.22652271 -34.1875 15.6875 C-34.21263672 14.80642578 -34.23777344 13.92535156 -34.26367188 13.01757812 C-34.27817383 11.74624023 -34.27817383 11.74624023 -34.29296875 10.44921875 C-34.3086792 9.66893311 -34.32438965 8.88864746 -34.34057617 8.0847168 C-33.90959869 5.4466403 -33.14105588 4.56234135 -31 3 C-28 3.0625 -28 3.0625 -25 4 C-23.375 6 -23.375 6 -22 8 C-19.90584196 8.79623822 -19.90584196 8.79623822 -18 9 C-17.87625 8.05125 -17.7525 7.1025 -17.625 6.125 C-17 3 -17 3 -15 1 C-10.02521609 -0.21336193 -5.08411245 -0.10168225 0 0 Z " fill="#E8C5A6" transform="translate(185,42)"/>
<path d="M0 0 C6.45930031 2.40011673 12.81687725 4.88888733 19.08154297 7.75463867 C25.36745487 10.6242288 31.00101915 12.80070892 37.9609375 13.515625 C40 14 40 14 42 17 C41.625 20.6875 41.625 20.6875 41 24 C32.93347826 24.02312737 24.86697028 24.04091709 16.80042362 24.05181217 C13.05516963 24.05704014 9.30993824 24.06413622 5.56469727 24.07543945 C1.95318313 24.08627141 -1.65830921 24.09227749 -5.26983833 24.09487724 C-6.65060329 24.09673094 -8.031367 24.10035049 -9.41212273 24.10573006 C-11.33975952 24.11294447 -13.26741807 24.11340809 -15.19506836 24.11352539 C-16.29427109 24.115746 -17.39347382 24.11796661 -18.52598572 24.12025452 C-21 24 -21 24 -22 23 C-22.15272417 20.92060164 -22.22195322 18.83481069 -22.25 16.75 C-22.27578125 15.61046875 -22.3015625 14.4709375 -22.328125 13.296875 C-21.97367836 9.73553014 -21.05886307 7.8824083 -19 5 C-15.125 5.875 -15.125 5.875 -14 7 C-7.91531443 7.23376923 -7.91531443 7.23376923 -2 6 C-1.855625 5.195625 -1.71125 4.39125 -1.5625 3.5625 C-1 1 -1 1 0 0 Z " fill="#E4E4E4" transform="translate(327,356)"/>
<path d="M0 0 C0.721875 0.969375 1.44375 1.93875 2.1875 2.9375 C4.29180679 5.64303731 5.72297151 6.50686192 9.125 7 C13.0635594 7.35824388 13.0635594 7.35824388 16 5 C17.95703125 5.07421875 17.95703125 5.07421875 20 6 C21.82421875 8.08203125 21.82421875 8.08203125 23.6875 10.8125 C27.42243061 16.18629847 31.32179159 21.38252995 35.3125 26.56640625 C37 29 37 29 37 31 C37.7425 31.226875 38.485 31.45375 39.25 31.6875 C42.51139591 33.24407532 43.92894975 35.08518854 46 38 C44.54984069 42.59217114 44.54984069 42.59217114 42.23046875 44.3125 C40 45 40 45 37.66015625 44.1640625 C36.80292969 43.65617187 35.94570312 43.14828125 35.0625 42.625 C34.09183594 42.0578125 33.12117188 41.490625 32.12109375 40.90625 C31.09113281 40.2771875 30.06117188 39.648125 29 39 C27.95972656 38.3709375 26.91945312 37.741875 25.84765625 37.09375 C22.55319236 35.08113206 19.27484504 33.04436734 16 31 C7.10879826 25.46051188 -1.87605068 20.14333575 -11 15 C-10.5618504 10.11522405 -9.97731415 7.19063747 -6.625 3.5625 C-6.01914063 2.88316406 -5.41328125 2.20382812 -4.7890625 1.50390625 C-3 0 -3 0 0 0 Z " fill="#E3E3E3" transform="translate(172,334)"/>
<path d="M0 0 C0.66 0.33 1.32 0.66 2 1 C1.67 1.61875 1.34 2.2375 1 2.875 C-1.44708699 10.52214685 0.180333 18.36389742 2 26 C1.01 26.33 0.02 26.66 -1 27 C-4.07614963 24.89921489 -5.92414397 23.11378405 -8 20 C-13.1955527 18.98087235 -18.1366957 19.89827048 -23.0625 21.625 C-28.17184006 23.33079542 -32.00717959 22.95238598 -37 21 C-39.5625 19.375 -39.5625 19.375 -41 18 C-40.875 15.75 -40.875 15.75 -40 13 C-37.02466006 10.59139148 -34.21392766 9.08652408 -30.66796875 7.65234375 C-27.04551168 6.13041529 -24.11808045 3.9980378 -20.9375 1.6875 C-13.64777091 -2.94680573 -8.09048749 -2.35831504 0 0 Z " fill="#EAC6A7" transform="translate(59,235)"/>
<path d="M0 0 C-0.35874439 4.90284001 -1.84615173 7.57692046 -4.84375 11.2890625 C-6.12006446 13.17766294 -6.57262843 14.77572523 -7 17 C-4.69 17.66 -2.38 18.32 0 19 C-0.0625 20.8125 -0.0625 20.8125 -1 23 C-6.5105588 26.20381326 -12.56764101 26.98619168 -18.79296875 28.05859375 C-22.34393686 29.10096076 -23.49722685 30.3900417 -26 33 C-27.32 33 -28.64 33 -30 33 C-30.70133599 31.42274653 -31.385583 29.83788667 -32.0625 28.25 C-32.63677734 26.92742187 -32.63677734 26.92742187 -33.22265625 25.578125 C-34.06647036 22.77954554 -34.30262708 21.61086893 -33 19 C-30.99609375 17.76171875 -30.99609375 17.76171875 -28.4375 16.6875 C-23.93187836 14.59765847 -20.70213616 12.19593702 -17.07421875 8.84765625 C-14.74420679 6.77214653 -12.33134404 4.90419542 -9.8125 3.0625 C-9.01457031 2.47597656 -8.21664063 1.88945312 -7.39453125 1.28515625 C-4.6917469 -0.1654409 -3.02162972 -0.26298376 0 0 Z " fill="#EAC7A7" transform="translate(294,130)"/>
<path d="M0 0 C2.49135132 1.94816361 3.38698193 3.8921213 4.67578125 6.76953125 C5.11535156 7.71441406 5.55492187 8.65929687 6.0078125 9.6328125 C7.26777116 13.79240205 6.20310705 16.43755385 4.86328125 20.45703125 C1.87132567 22.73091749 -1.37819789 22.88450795 -5.06665039 22.84301758 C-8.84368027 22.13875007 -10.7304246 19.57426165 -13.07421875 16.70703125 C-13.55439453 16.16820312 -14.03457031 15.629375 -14.52929688 15.07421875 C-16.88081925 12.35454548 -18.72150901 10.09674215 -19.13671875 6.45703125 C-17.24107449 5.66491196 -15.34519504 4.87335549 -13.44921875 4.08203125 C-12.39347656 3.64117187 -11.33773438 3.2003125 -10.25 2.74609375 C-9.22261719 2.32070313 -8.19523437 1.8953125 -7.13671875 1.45703125 C-6.26402344 1.03164063 -5.39132812 0.60625 -4.4921875 0.16796875 C-2.13671875 -0.54296875 -2.13671875 -0.54296875 0 0 Z " fill="#E9C7A9" transform="translate(320.13671875,341.54296875)"/>
<path d="M0 0 C4.54615347 0.55667185 7.52874524 2.35249682 11.3125 4.875 C12.38113281 5.57367188 13.44976562 6.27234375 14.55078125 6.9921875 C15.35902344 7.65476562 16.16726562 8.31734375 17 9 C17 12 17 12 15.64453125 13.5 C13.78120584 15.02562251 11.90720319 16.52953032 10 18 C9.195625 18.639375 8.39125 19.27875 7.5625 19.9375 C3.88134808 21.46383129 0.70718813 21.22329749 -3 20 C-6.0625 17.75 -6.0625 17.75 -8 15 C-7.71440223 10.72317347 -5.93219399 8.08935543 -3.4375 4.6875 C-2.79683594 3.80449219 -2.15617188 2.92148437 -1.49609375 2.01171875 C-0.75552734 1.01591797 -0.75552734 1.01591797 0 0 Z " fill="#E9C7A9" transform="translate(180,321)"/>
</svg>
